<svg width="49" height="46" viewBox="0 0 49 46" fill="none" xmlns="http://www.w3.org/2000/svg">
<path d="M0.240479 0.150391C1.21965 0.233724 2.16756 0.296224 3.08423 0.337891C4.02173 0.379557 4.9384 0.400391 5.83423 0.400391C6.5009 0.400391 7.28215 0.379557 8.17798 0.337891C9.07381 0.296224 10.0426 0.233724 11.0842 0.150391C11.3551 0.837891 11.7301 1.54622 12.2092 2.27539C12.6884 3.00456 13.2926 3.80664 14.0217 4.68164L39.803 35.1816C39.7405 32.015 39.678 27.8171 39.6155 22.5879C39.4488 11.6087 39.2613 5.70247 39.053 4.86914C38.803 3.91081 38.3551 3.24414 37.7092 2.86914C37.0842 2.49414 36.053 2.30664 34.6155 2.30664H33.6467V0.150391C33.8967 0.150391 34.2717 0.160807 34.7717 0.181641C37.7301 0.327474 39.8134 0.400391 41.0217 0.400391C42.2509 0.400391 44.3967 0.327474 47.4592 0.181641C47.8967 0.160807 48.2301 0.150391 48.4592 0.150391L48.428 2.30664C48.303 2.28581 48.1676 2.27539 48.0217 2.27539C47.8759 2.25456 47.678 2.24414 47.428 2.24414C44.6363 2.24414 43.2196 6.12956 43.178 13.9004C43.1571 15.8587 43.1467 17.39 43.1467 18.4941L43.0217 26.8066C42.9801 28.0358 42.9488 29.3066 42.928 30.6191C42.928 31.9108 42.928 33.6921 42.928 35.9629C42.928 38.4837 42.9592 40.4525 43.0217 41.8691C43.0842 43.265 43.1884 44.39 43.3342 45.2441H39.8655C39.5113 44.4108 38.2509 42.7441 36.0842 40.2441L35.7717 39.8691L8.95923 8.33789V9.05664C9.08423 28.5566 9.29256 38.8691 9.58423 39.9941C9.83423 40.9525 10.2717 41.6191 10.8967 41.9941C11.5426 42.3691 12.5634 42.5566 13.9592 42.5566H14.8967V44.7441C14.5842 44.7233 14.1259 44.7025 13.5217 44.6816C10.6051 44.5566 8.61548 44.4941 7.55298 44.4941C6.53215 44.4941 5.39673 44.515 4.14673 44.5566C2.91756 44.5983 1.61548 44.6608 0.240479 44.7441V42.5879C0.365479 42.5879 0.500895 42.5983 0.646729 42.6191C0.813395 42.6191 1.02173 42.6191 1.27173 42.6191C4.0634 42.6191 5.48006 38.7546 5.52173 31.0254C5.54256 29.0671 5.55298 27.5358 5.55298 26.4316L5.70923 18.1191C5.73006 16.3275 5.74048 14.5879 5.74048 12.9004C5.76131 11.1921 5.77173 9.24414 5.77173 7.05664C5.77173 5.26497 5.42798 4.02539 4.74048 3.33789C4.05298 2.65039 2.83423 2.30664 1.08423 2.30664H0.240479V0.150391Z" fill="black"/>
</svg>
