<svg width="145" height="32" viewBox="0 0 268 62" fill="none" xmlns="http://www.w3.org/2000/svg">
<path d="M0.368 48V47.36L4.848 46.592V8.704C4.848 7.68 4.44267 6.69867 3.632 5.76C2.82133 4.77866 1.73333 3.968 0.368 3.328V2.688H12.592L39.472 37.312H40.432V21.76C40.432 20.096 40.2827 18.496 39.984 16.96C39.6853 15.3813 39.216 13.888 38.576 12.48C37.9787 11.072 37.2107 9.792 36.272 8.64C35.376 7.44533 34.288 6.4 33.008 5.504C31.7707 4.608 30.3627 3.88266 28.784 3.328V2.688H46.384V3.328L41.392 4.096V48H36.336L6.64 9.984H5.808V24.768C5.808 26.8587 5.95733 28.8427 6.256 30.72C6.55467 32.5973 7.024 34.368 7.664 36.032C8.34667 37.6533 9.2 39.168 10.224 40.576C11.248 41.984 12.4853 43.264 13.936 44.416C15.4293 45.5253 17.136 46.5067 19.056 47.36V48H0.368ZM58.0495 61.76C56.4282 61.76 55.0415 61.4827 53.8895 60.928C52.7802 60.416 51.9268 59.6907 51.3295 58.752C50.7748 57.856 50.4975 56.8533 50.4975 55.744C50.4975 55.0187 50.6468 54.3787 50.9455 53.824C51.2868 53.312 51.7135 52.864 52.2255 52.48C52.7802 52.1387 53.3775 51.8827 54.0175 51.712C54.7002 51.5413 55.3828 51.456 56.0655 51.456C56.8762 51.456 57.6442 51.584 58.3695 51.84C59.0948 52.1387 59.6922 52.544 60.1615 53.056C60.6308 53.6107 60.8655 54.3147 60.8655 55.168C60.8655 55.7653 60.7802 56.32 60.6095 56.832C60.4815 57.344 60.2895 57.8133 60.0335 58.24C59.7775 58.6667 59.5642 59.008 59.3935 59.264C59.2655 59.5627 59.2015 59.7973 59.2015 59.968C59.2015 60.2667 59.5855 60.416 60.3535 60.416C61.1215 60.416 61.9108 60.096 62.7215 59.456C63.5322 58.816 64.3002 57.8773 65.0255 56.64C65.5802 55.7867 66.1775 54.592 66.8175 53.056C67.4575 51.5627 68.0762 49.8773 68.6735 48H64.1935L51.6495 17.28L47.8735 16.704V16H65.0895V16.704L61.3775 17.28L70.7215 40.704H71.5535L75.7135 28.992C75.9268 28.3093 76.0762 27.584 76.1615 26.816C76.2895 26.048 76.3535 25.28 76.3535 24.512C76.3535 23.6587 76.2682 22.784 76.0975 21.888C75.9695 20.9493 75.6708 20.096 75.2015 19.328C74.7748 18.5173 74.1775 17.8773 73.4095 17.408C72.6415 16.896 71.6602 16.64 70.4655 16.64V16H84.9935V16.64L81.0255 17.28L69.6335 48C68.7375 50.432 67.9482 52.4373 67.2655 54.016C66.5828 55.5947 66.0068 56.7253 65.5375 57.408C64.7268 58.7307 63.7242 59.776 62.5295 60.544C61.3348 61.3547 59.8415 61.76 58.0495 61.76ZM108.716 48V47.36L112.236 46.72L91.6915 17.28L87.9795 16.704V16H104.94V16.704L101.548 17.28L122.156 46.72L125.804 47.36V48H108.716ZM93.5475 48.96C92.3955 48.96 91.3928 48.7253 90.5395 48.256C89.6862 47.8293 89.0248 47.232 88.5555 46.464C88.0862 45.696 87.8515 44.864 87.8515 43.968C87.8515 42.9013 88.1075 42.0267 88.6195 41.344C89.1315 40.6613 89.8142 40.128 90.6675 39.744C91.5208 39.36 92.4382 39.168 93.4195 39.168C94.1448 39.168 94.8062 39.2747 95.4035 39.488C96.0435 39.7013 96.5982 40 97.0675 40.384C97.5368 40.7253 97.8995 41.152 98.1555 41.664C98.4542 42.176 98.6035 42.7307 98.6035 43.328C98.6035 43.6267 98.5822 43.9253 98.5395 44.224C98.4968 44.48 98.4328 44.7147 98.3475 44.928C98.3048 45.1413 98.2835 45.3333 98.2835 45.504C98.2835 45.8453 98.4115 46.016 98.6675 46.016C99.0088 46.016 99.4995 45.568 100.14 44.672C100.78 43.7333 101.505 42.496 102.316 40.96C103.126 39.3813 103.916 37.5893 104.684 35.584L105.708 36.928H104.94C103.788 39.744 102.636 42.048 101.484 43.84C100.332 45.5893 99.1155 46.8907 97.8355 47.744C96.5555 48.5547 95.1262 48.96 93.5475 48.96ZM121.196 24.704C120.257 24.704 119.404 24.5333 118.636 24.192C117.91 23.808 117.334 23.3173 116.908 22.72C116.524 22.08 116.332 21.3973 116.332 20.672C116.332 20.288 116.396 19.9253 116.524 19.584C116.694 19.2 116.844 18.8587 116.972 18.56C117.1 18.2613 117.164 18.048 117.164 17.92C117.164 17.7067 117.057 17.6 116.844 17.6C116.289 17.6 115.606 18.1547 114.796 19.264C114.028 20.3733 113.196 21.8027 112.3 23.552C111.404 25.3013 110.55 27.1573 109.74 29.12L108.908 27.84H109.484C110.892 24.64 112.193 22.1227 113.388 20.288C114.625 18.4107 115.841 17.0667 117.036 16.256C118.273 15.4453 119.596 15.04 121.004 15.04C122.241 15.04 123.265 15.2747 124.076 15.744C124.929 16.2133 125.569 16.8107 125.996 17.536C126.465 18.2613 126.7 19.0507 126.7 19.904C126.7 20.928 126.444 21.8027 125.932 22.528C125.42 23.2533 124.737 23.808 123.884 24.192C123.073 24.5333 122.177 24.704 121.196 24.704ZM140.794 48.96C138.106 48.96 136.186 48.192 135.034 46.656C133.882 45.12 133.306 42.816 133.306 39.744V17.28H128.954V16.64L133.37 16L141.306 5.504H142.266V15.424L148.858 16.64V17.28H142.266V42.688C142.266 44.1813 142.479 45.2693 142.906 45.952C143.375 46.592 143.994 46.912 144.762 46.912C145.445 46.912 146.106 46.6987 146.746 46.272C147.386 45.8027 148.026 45.2267 148.666 44.544L148.858 45.44C148.389 45.8667 147.834 46.2933 147.194 46.72C146.597 47.1467 145.957 47.5307 145.274 47.872C144.591 48.2133 143.866 48.4693 143.098 48.64C142.373 48.8533 141.605 48.96 140.794 48.96ZM169.407 15.04C172.948 15.04 175.871 15.744 178.175 17.152C180.479 18.56 182.207 20.4373 183.359 22.784C184.511 25.1307 185.087 27.776 185.087 30.72H160.831V30.08L176.767 29.248C176.767 26.3893 176.511 23.9573 175.999 21.952C175.487 19.9467 174.676 18.432 173.567 17.408C172.5 16.3413 171.092 15.808 169.343 15.808C167.636 15.808 166.143 16.3627 164.863 17.472C163.626 18.5813 162.666 20.2667 161.983 22.528C161.343 24.7467 161.023 27.6053 161.023 31.104C161.023 33.024 161.258 34.88 161.727 36.672C162.239 38.4213 162.964 40.0213 163.903 41.472C164.884 42.88 166.079 44.0107 167.487 44.864C168.895 45.6747 170.538 46.08 172.415 46.08C173.567 46.08 174.719 45.9093 175.871 45.568C177.023 45.2267 178.111 44.736 179.135 44.096C180.159 43.456 181.098 42.688 181.951 41.792C182.804 40.8533 183.508 39.7653 184.063 38.528L184.767 39.168C183.786 41.1733 182.655 42.816 181.375 44.096C180.138 45.376 178.794 46.3787 177.343 47.104C175.892 47.7867 174.42 48.256 172.927 48.512C171.434 48.8107 169.962 48.96 168.511 48.96C165.866 48.96 163.519 48.512 161.471 47.616C159.423 46.72 157.674 45.504 156.223 43.968C154.815 42.3893 153.727 40.6187 152.959 38.656C152.234 36.6507 151.871 34.5813 151.871 32.448C151.871 29.76 152.298 27.3493 153.151 25.216C154.047 23.0827 155.263 21.2693 156.799 19.776C158.378 18.24 160.234 17.0667 162.367 16.256C164.5 15.4453 166.847 15.04 169.407 15.04ZM206.946 48.96C203.746 48.96 200.887 48.256 198.37 46.848C195.895 45.44 193.954 43.4987 192.546 41.024C191.138 38.5067 190.434 35.648 190.434 32.448C190.434 29.76 190.882 27.3493 191.778 25.216C192.674 23.0827 193.954 21.2693 195.618 19.776C197.282 18.24 199.287 17.0667 201.634 16.256C203.98 15.4453 206.604 15.04 209.506 15.04C211.212 15.04 212.855 15.232 214.434 15.616C216.055 15.9573 217.506 16.4907 218.786 17.216C220.066 17.8987 221.068 18.7733 221.794 19.84C222.562 20.864 222.946 22.0587 222.946 23.424C222.946 24.3627 222.668 25.1733 222.114 25.856C221.559 26.496 220.812 26.9867 219.874 27.328C218.935 27.6267 217.868 27.776 216.674 27.776C214.882 27.776 213.367 27.4133 212.13 26.688C210.892 25.9627 210.274 24.896 210.274 23.488C210.274 22.5493 210.594 21.7173 211.234 20.992C211.874 20.2667 212.77 19.7547 213.922 19.456C215.842 18.9013 216.802 18.3893 216.802 17.92C216.802 17.6213 216.546 17.3013 216.034 16.96C215.522 16.6187 214.796 16.3413 213.858 16.128C212.962 15.9147 211.895 15.808 210.658 15.808C208.951 15.808 207.415 16.2133 206.05 17.024C204.684 17.792 203.511 18.88 202.53 20.288C201.548 21.6533 200.78 23.232 200.226 25.024C199.714 26.816 199.458 28.736 199.458 30.784C199.458 33.1307 199.735 35.2427 200.29 37.12C200.844 38.9973 201.634 40.6187 202.658 41.984C203.682 43.3067 204.919 44.3307 206.37 45.056C207.863 45.7387 209.506 46.08 211.298 46.08C212.876 46.08 214.412 45.8027 215.906 45.248C217.399 44.6507 218.764 43.7973 220.002 42.688C221.239 41.536 222.242 40.1493 223.01 38.528L223.714 39.168C222.647 41.216 221.474 42.88 220.194 44.16C218.914 45.44 217.548 46.4427 216.098 47.168C214.647 47.8507 213.154 48.32 211.618 48.576C210.082 48.832 208.524 48.96 206.946 48.96ZM267.477 47.36V48H251.925V47.36L255.061 46.72V25.024C255.061 22.7627 254.677 21.056 253.909 19.904C253.141 18.752 252.031 18.176 250.581 18.176C249.599 18.176 248.597 18.56 247.573 19.328C246.549 20.0533 245.589 21.0133 244.693 22.208C243.797 23.36 242.986 24.5547 242.26 25.792C241.535 27.0293 240.959 28.16 240.533 29.184V46.72L243.669 47.36V48H228.117V47.36L231.573 46.72V3.328H227.797V2.624L240.533 0.319996V25.536L241.045 25.984C242.111 23.808 243.306 21.9093 244.628 20.288C245.994 18.624 247.487 17.344 249.109 16.448C250.773 15.5093 252.629 15.04 254.677 15.04C256.426 15.04 257.898 15.3173 259.093 15.872C260.287 16.384 261.226 17.152 261.909 18.176C262.634 19.1573 263.167 20.352 263.509 21.76C263.85 23.1253 264.021 24.64 264.021 26.304V46.72L267.477 47.36Z" fill="#66593C"/>
</svg>
